<mxfile host="app.diagrams.net" modified="2024-05-09T11:26:42.955Z" agent="Mozilla/5.0 (Macintosh; Intel Mac OS X 10_15_7) AppleWebKit/537.36 (KHTML, like Gecko) Chrome/124.0.0.0 Safari/537.36" etag="A9C-KcNw8lwLEyJRpgsC" version="24.3.1" type="device">
  <diagram name="Page-1" id="K3Cmj-S8PUHw6w3xUBsM">
    <mxGraphModel dx="1434" dy="1938" grid="1" gridSize="10" guides="1" tooltips="1" connect="1" arrows="1" fold="1" page="1" pageScale="1" pageWidth="827" pageHeight="1169" math="0" shadow="0">
      <root>
        <mxCell id="0" />
        <mxCell id="1" parent="0" />
        <mxCell id="oPnVwpQpyDnUsUsycg9N-29" value="" style="rounded=0;whiteSpace=wrap;html=1;strokeColor=#A9C4EB;" vertex="1" parent="1">
          <mxGeometry x="20" y="-83" width="880" height="443" as="geometry" />
        </mxCell>
        <mxCell id="oPnVwpQpyDnUsUsycg9N-25" value="" style="rounded=0;whiteSpace=wrap;html=1;dashed=1;fillColor=none;strokeColor=#3F82D9;strokeWidth=2;" vertex="1" parent="1">
          <mxGeometry x="250" y="-70" width="480" height="420" as="geometry" />
        </mxCell>
        <mxCell id="oPnVwpQpyDnUsUsycg9N-11" style="edgeStyle=orthogonalEdgeStyle;rounded=0;orthogonalLoop=1;jettySize=auto;html=1;" edge="1" parent="1" source="oPnVwpQpyDnUsUsycg9N-2" target="oPnVwpQpyDnUsUsycg9N-3">
          <mxGeometry relative="1" as="geometry" />
        </mxCell>
        <mxCell id="oPnVwpQpyDnUsUsycg9N-2" value="Azure Repos" style="image;sketch=0;aspect=fixed;html=1;points=[];align=center;fontSize=12;image=img/lib/mscae/Azure_Repos.svg;" vertex="1" parent="1">
          <mxGeometry x="50" y="110" width="54" height="60" as="geometry" />
        </mxCell>
        <mxCell id="oPnVwpQpyDnUsUsycg9N-3" value="Azure Pipelines" style="image;sketch=0;aspect=fixed;html=1;points=[];align=center;fontSize=12;image=img/lib/mscae/Azure_Pipelines.svg;" vertex="1" parent="1">
          <mxGeometry x="170" y="110" width="60" height="60" as="geometry" />
        </mxCell>
        <mxCell id="oPnVwpQpyDnUsUsycg9N-8" style="edgeStyle=orthogonalEdgeStyle;rounded=0;orthogonalLoop=1;jettySize=auto;html=1;" edge="1" parent="1" source="oPnVwpQpyDnUsUsycg9N-4" target="oPnVwpQpyDnUsUsycg9N-3">
          <mxGeometry relative="1" as="geometry" />
        </mxCell>
        <mxCell id="oPnVwpQpyDnUsUsycg9N-10" style="edgeStyle=orthogonalEdgeStyle;rounded=0;orthogonalLoop=1;jettySize=auto;html=1;" edge="1" parent="1" source="oPnVwpQpyDnUsUsycg9N-9" target="oPnVwpQpyDnUsUsycg9N-3">
          <mxGeometry relative="1" as="geometry" />
        </mxCell>
        <mxCell id="oPnVwpQpyDnUsUsycg9N-4" value="Key Vault" style="image;aspect=fixed;html=1;points=[];align=center;fontSize=12;image=img/lib/azure2/security/Key_Vaults.svg;" vertex="1" parent="1">
          <mxGeometry x="321.5" y="20" width="68" height="68" as="geometry" />
        </mxCell>
        <mxCell id="oPnVwpQpyDnUsUsycg9N-9" value="Storage Account" style="image;aspect=fixed;html=1;points=[];align=center;fontSize=12;image=img/lib/azure2/storage/Storage_Accounts.svg;" vertex="1" parent="1">
          <mxGeometry x="323" y="200" width="65" height="52" as="geometry" />
        </mxCell>
        <mxCell id="oPnVwpQpyDnUsUsycg9N-12" value="Resource Group" style="image;aspect=fixed;html=1;points=[];align=center;fontSize=12;image=img/lib/azure2/general/Resource_Groups.svg;" vertex="1" parent="1">
          <mxGeometry x="275" y="-60" width="53.13" height="50" as="geometry" />
        </mxCell>
        <mxCell id="oPnVwpQpyDnUsUsycg9N-17" value="" style="rounded=0;whiteSpace=wrap;html=1;fillColor=none;strokeColor=#3F82D9;dashed=1;strokeWidth=2;" vertex="1" parent="1">
          <mxGeometry x="440" y="-23" width="290" height="243" as="geometry" />
        </mxCell>
        <mxCell id="oPnVwpQpyDnUsUsycg9N-23" style="edgeStyle=orthogonalEdgeStyle;rounded=0;orthogonalLoop=1;jettySize=auto;html=1;endArrow=classic;endFill=1;strokeColor=#3F82D9;" edge="1" parent="1" source="oPnVwpQpyDnUsUsycg9N-13" target="oPnVwpQpyDnUsUsycg9N-14">
          <mxGeometry relative="1" as="geometry" />
        </mxCell>
        <mxCell id="oPnVwpQpyDnUsUsycg9N-26" style="edgeStyle=orthogonalEdgeStyle;rounded=0;orthogonalLoop=1;jettySize=auto;html=1;endArrow=classic;endFill=1;fillColor=#ffcc99;strokeColor=#3F82D9;" edge="1" parent="1" source="oPnVwpQpyDnUsUsycg9N-13" target="oPnVwpQpyDnUsUsycg9N-18">
          <mxGeometry relative="1" as="geometry">
            <Array as="points">
              <mxPoint x="495" y="260" />
            </Array>
          </mxGeometry>
        </mxCell>
        <mxCell id="oPnVwpQpyDnUsUsycg9N-13" value="VM" style="image;aspect=fixed;html=1;points=[];align=center;fontSize=12;image=img/lib/azure2/compute/VM_Images_Classic.svg;" vertex="1" parent="1">
          <mxGeometry x="460" y="108" width="69" height="64" as="geometry" />
        </mxCell>
        <mxCell id="oPnVwpQpyDnUsUsycg9N-24" style="edgeStyle=orthogonalEdgeStyle;rounded=0;orthogonalLoop=1;jettySize=auto;html=1;endArrow=classic;endFill=1;strokeColor=#3F82D9;" edge="1" parent="1" source="oPnVwpQpyDnUsUsycg9N-14" target="oPnVwpQpyDnUsUsycg9N-19">
          <mxGeometry relative="1" as="geometry" />
        </mxCell>
        <mxCell id="oPnVwpQpyDnUsUsycg9N-14" value="Public IP" style="image;aspect=fixed;html=1;points=[];align=center;fontSize=12;image=img/lib/azure2/networking/Public_IP_Addresses.svg;" vertex="1" parent="1">
          <mxGeometry x="562" y="114" width="65" height="52" as="geometry" />
        </mxCell>
        <mxCell id="oPnVwpQpyDnUsUsycg9N-16" value="Virtual Network" style="image;aspect=fixed;html=1;points=[];align=center;fontSize=12;image=img/lib/azure2/networking/Virtual_Networks.svg;" vertex="1" parent="1">
          <mxGeometry x="452.5" y="-10" width="67" height="40" as="geometry" />
        </mxCell>
        <mxCell id="oPnVwpQpyDnUsUsycg9N-18" value="Log Analytics Workspace" style="image;aspect=fixed;html=1;points=[];align=center;fontSize=12;image=img/lib/azure2/management_governance/Log_Analytics_Workspaces.svg;" vertex="1" parent="1">
          <mxGeometry x="563" y="240" width="64" height="64" as="geometry" />
        </mxCell>
        <mxCell id="oPnVwpQpyDnUsUsycg9N-19" value="Network Security Group" style="image;aspect=fixed;html=1;points=[];align=center;fontSize=12;image=img/lib/azure2/networking/Network_Security_Groups.svg;" vertex="1" parent="1">
          <mxGeometry x="670" y="106" width="56.00000000000001" height="68" as="geometry" />
        </mxCell>
        <mxCell id="oPnVwpQpyDnUsUsycg9N-20" value="The Internet" style="outlineConnect=0;dashed=0;verticalLabelPosition=bottom;verticalAlign=top;align=center;html=1;shape=mxgraph.aws3.internet_2;fillColor=#D2D3D3;gradientColor=none;" vertex="1" parent="1">
          <mxGeometry x="793" y="103" width="79.5" height="54" as="geometry" />
        </mxCell>
        <mxCell id="oPnVwpQpyDnUsUsycg9N-21" style="edgeStyle=orthogonalEdgeStyle;rounded=0;orthogonalLoop=1;jettySize=auto;html=1;" edge="1" parent="1" source="oPnVwpQpyDnUsUsycg9N-3">
          <mxGeometry relative="1" as="geometry">
            <mxPoint x="440" y="140" as="targetPoint" />
          </mxGeometry>
        </mxCell>
        <mxCell id="oPnVwpQpyDnUsUsycg9N-27" style="edgeStyle=orthogonalEdgeStyle;rounded=0;orthogonalLoop=1;jettySize=auto;html=1;entryX=0;entryY=0.7;entryDx=0;entryDy=0;entryPerimeter=0;endArrow=classic;endFill=1;strokeColor=#3F82D9;" edge="1" parent="1" source="oPnVwpQpyDnUsUsycg9N-19" target="oPnVwpQpyDnUsUsycg9N-20">
          <mxGeometry relative="1" as="geometry" />
        </mxCell>
      </root>
    </mxGraphModel>
  </diagram>
</mxfile>
